HIERARCHY
ROOT Hips
{
	OFFSET -3.958830 18.904000 13.208200
	CHANNELS 6 Xposition Yposition Zposition Zrotation Yrotation Xrotation 
	JOINT LHipJoint
	{
		OFFSET 0.000000 0.000000 0.000000
		CHANNELS 3 Zrotation Yrotation Xrotation
		JOINT LeftUpLeg
		{
			OFFSET 1.800000 -1.400000 0.085000
			CHANNELS 3 Zrotation Yrotation Xrotation
			JOINT LeftLeg
			{
				OFFSET 2.215000 -6.000000 0.000000
				CHANNELS 3 Zrotation Yrotation Xrotation
				JOINT LeftFoot
				{
					OFFSET 2.500000 -6.900000 0.000000
					CHANNELS 3 Zrotation Yrotation Xrotation
					JOINT LeftToeBase
					{
						OFFSET 0.200000 -0.500000 1.950000
						CHANNELS 3 Zrotation Yrotation Xrotation
						End Site
						{
							OFFSET 0.000000 0.000000 0.000000
						}
					}
				}
			}
		}
	}
	JOINT RHipJoint
	{
		OFFSET 0.000000 0.000000 0.000000
		CHANNELS 3 Zrotation Yrotation Xrotation
		JOINT RightUpLeg
		{
			OFFSET -1.800000 -1.400000 0.085000
			CHANNELS 3 Zrotation Yrotation Xrotation
			JOINT RightLeg
			{
				OFFSET -2.215000 -6.000000 0.000000
				CHANNELS 3 Zrotation Yrotation Xrotation
				JOINT RightFoot
				{
					OFFSET -2.500000 -6.900000 0.000000
					CHANNELS 3 Zrotation Yrotation Xrotation
					JOINT RightToeBase
					{
						OFFSET -0.200000 -0.500000 1.950000
						CHANNELS 3 Zrotation Yrotation Xrotation
						End Site
						{
							OFFSET 0.000000 0.000000 0.000000
						}
					}
				}
			}
		}
	}
	JOINT LowerBack
	{
		OFFSET 0.000000 0.000000 0.000000
		CHANNELS 3 Zrotation Yrotation Xrotation
		JOINT Spine
		{
			OFFSET -0.087000 1.940000 -0.288900
			CHANNELS 3 Zrotation Yrotation Xrotation
			JOINT Spine1
			{
				OFFSET 0.000000 1.950000 0.060000
				CHANNELS 3 Zrotation Yrotation Xrotation
				JOINT Neck
				{
					OFFSET 0.000000 0.000000 0.000000
					CHANNELS 3 Zrotation Yrotation Xrotation
					JOINT Neck1
					{
						OFFSET 0.000000 1.600000 0.340000
						CHANNELS 3 Zrotation Yrotation Xrotation
						JOINT Head
						{
							OFFSET 0.000000 1.667000 -0.240000
							CHANNELS 3 Zrotation Yrotation Xrotation
							End Site
							{
								OFFSET 0.000000 0.000000 0.000000
							}
						}
					}
				}
				JOINT LeftShoulder
				{
					OFFSET 0.000000 0.000000 0.000000
					CHANNELS 3 Zrotation Yrotation Xrotation
					JOINT LeftArm
					{
						OFFSET 2.700000 1.550000 -0.730000
						CHANNELS 3 Zrotation Yrotation Xrotation
						JOINT LeftForeArm
						{
							OFFSET 5.450000 0.000000 0.000000
							CHANNELS 3 Zrotation Yrotation Xrotation
							JOINT LeftHand
							{
								OFFSET 3.450000 0.000000 0.000000
								CHANNELS 3 Zrotation Yrotation Xrotation
								JOINT LeftHandIndex1
								{
									OFFSET 0.750000 0.000000 0.000000
									CHANNELS 3 Zrotation Yrotation Xrotation
									End Site
									{
										OFFSET 0.000000 0.000000 0.000000
									}
								}
							}
						}
					}
				}
				JOINT RightShoulder
				{
					OFFSET 0.000000 0.000000 0.000000
					CHANNELS 3 Zrotation Yrotation Xrotation
					JOINT RightArm
					{
						OFFSET -2.700000 1.550000 -0.730000
						CHANNELS 3 Zrotation Yrotation Xrotation
						JOINT RightForeArm
						{
							OFFSET -5.450000 0.000000 0.000000
							CHANNELS 3 Zrotation Yrotation Xrotation
							JOINT RightHand
							{
								OFFSET -3.450000 0.000000 0.000000
								CHANNELS 3 Zrotation Yrotation Xrotation
								JOINT RightHandIndex1
								{
									OFFSET -0.750000 0.000000 0.000000
									CHANNELS 3 Zrotation Yrotation Xrotation
									End Site
									{
										OFFSET 0.000000 0.000000 0.000000
									}
								}
							}
						}
					}
				}
			}
		}
	}
}
MOTION
Frames: 8
Frame Time: 0.016667
-0.706550 17.381500 -2.141850 17.307739 19.347650 -18.217942 -16.300538 10.661130 8.384604 -17.732467 -25.331677 -81.439729 23.557996 -0.423802 58.065870 1.351061 9.086971 1.393990 0.002230 -0.346970 0.144820 17.726496 -8.904258 0.747947 -23.589032 3.697325 6.217202 6.608374 -8.250115 23.072626 -0.738373 -5.375007 2.511813 -0.648010 -0.197160 0.236720 -1.106697 -3.769977 -9.468114 -10.632076 18.694528 66.000800 1.949330 18.521536 -21.071565 1.888525 1.496670 -15.867916 9.716652 -9.805516 51.391804 -0.477770 -3.880350 -17.775410 -21.038140 -0.204507 2.699653 -57.333450 21.245849 -16.681418 -4.748143 -9.380247 -0.808977 -3.254877 2.723526 0.702070 -0.459100 0.399880 0.079590 12.447346 18.932702 11.376564 46.949738 6.346560 -18.665928 -144.891246 3.471220 -53.930190 2.504058 -1.849129 0.157970 -0.122660 -0.043250 -0.017410 
-0.698090 17.438950 -2.145350 17.634195 18.164438 -19.388665 -16.281793 10.823300 8.184698 -16.728017 -23.735903 -80.789340 22.788690 0.172077 61.438521 1.438597 9.700425 1.211831 0.028500 -0.322090 0.184520 17.708536 -9.000112 0.759532 -23.790020 3.672716 6.840004 5.607076 -7.955045 22.736968 -0.750898 -5.329819 2.522145 -0.619430 -0.209720 0.226060 -1.144147 -3.779640 -9.390535 -11.048083 19.366727 66.051234 2.370845 18.618594 -19.040043 2.033059 1.541231 -15.967615 9.581287 -9.628219 51.804381 -0.433660 -3.860670 -18.621580 -21.007286 -1.142756 2.900770 -57.301155 21.043932 -16.936865 -6.378006 -8.941062 -0.954493 -3.239679 2.698701 0.722530 -0.467670 0.412730 0.077370 12.624756 19.421043 11.814778 46.770572 5.874136 -18.591983 -144.715537 6.360868 -64.051062 2.475854 -1.736063 0.141440 -0.098900 -0.058520 -0.033700 
-0.681480 17.554160 -2.158840 18.078251 16.284996 -21.564568 -16.258300 11.075953 7.871668 -14.761001 -21.125684 -79.339664 20.850988 1.768441 66.888760 1.596313 10.667621 0.934415 0.069410 -0.281260 0.253570 17.678611 -9.104435 0.796116 -24.305857 3.560500 8.010628 4.318656 -7.589889 21.842173 -0.784514 -5.284749 2.524209 -0.578590 -0.225950 0.223220 -1.179493 -3.895456 -9.286096 -11.679960 20.309422 66.449458 3.346347 18.785836 -15.226051 2.105388 1.529516 -15.980445 9.005948 -9.059447 51.949204 -0.185310 -3.670720 -20.327280 -19.617591 -2.333257 3.216213 -58.401255 20.141253 -17.833110 -9.500461 -8.907980 -1.211984 -3.231709 2.667795 0.746600 -0.476390 0.440170 0.070880 11.836190 19.995398 12.469619 46.926077 5.650724 -18.538886 -144.038545 11.822945 -79.964618 2.474112 -1.551878 0.126370 -0.064470 -0.081970 -0.054860 
-0.648520 17.707220 -2.186100 18.158736 14.948124 -23.006668 -16.239546 11.271740 7.665880 -12.170606 -19.140418 -76.659184 17.807731 4.574679 73.155438 1.796428 11.803476 0.612786 0.090470 -0.256530 0.296420 17.660093 -9.204630 0.760030 -24.884028 3.335609 7.147558 3.651133 -7.419664 22.374381 -0.776527 -5.226363 2.533036 -0.548540 -0.235870 0.222210 -1.210452 -4.001374 -9.200195 -12.207754 20.711181 67.102024 4.472874 18.703505 -12.917988 1.728069 1.993329 -15.651162 9.479487 -8.878279 51.399563 -0.407790 -3.122780 -21.622210 -17.296021 -2.478807 3.498124 -59.115305 19.844876 -18.930543 -14.711246 -9.230425 -1.473090 -3.238806 2.644642 0.769590 -0.466780 0.450320 0.050950 10.591588 19.160395 12.393408 48.064909 5.425763 -18.590891 -143.495569 16.983788 -91.648007 2.475564 -1.421365 0.108510 -0.041090 -0.079890 -0.084730 
-0.602030 17.863810 -2.207440 18.100131 12.155482 -24.070904 -16.239123 11.474772 7.463408 -7.905096 -16.467650 -75.068063 13.317792 9.408339 79.583180 2.085581 13.195176 0.247533 0.101670 -0.244890 0.366940 17.633516 -9.295801 0.676172 -25.192362 3.224493 5.219507 2.970671 -7.156665 23.606361 -0.745063 -5.098776 2.559593 -0.531440 -0.255280 0.217640 -1.219582 -4.094129 -9.096199 -13.065209 21.800504 67.138491 5.916634 19.391122 -12.110447 1.055553 2.982264 -15.042614 10.810887 -9.360489 50.213308 -2.045550 -2.106410 -21.942230 -14.708904 -1.211805 3.599712 -59.056178 20.536499 -19.869745 -21.374225 -9.225798 -1.698252 -3.245082 2.610699 0.777210 -0.454100 0.469760 0.026460 9.492991 16.764424 11.795399 50.209183 3.949210 -19.232833 -142.659853 23.889358 -103.231350 2.525787 -1.320455 0.092990 -0.020210 -0.094360 -0.116720 
-0.553690 18.023440 -2.237090 18.525066 8.572806 -25.034175 -16.224972 11.698394 7.229132 -3.707214 -13.093373 -72.652655 8.781737 15.128530 83.877993 2.379847 14.483739 -0.102073 0.166550 -0.158920 0.433420 17.610293 -9.418471 0.589154 -25.731844 3.379579 2.502430 2.258588 -6.825981 25.645762 -0.730407 -4.992278 2.550396 -0.485650 -0.307480 0.226950 -1.253339 -4.122056 -9.004372 -14.338004 23.036944 66.076297 7.649149 19.626203 -9.858802 0.486449 2.901102 -14.999951 10.214450 -8.814007 51.249418 -2.899540 -1.465390 -22.031010 -12.389476 -1.480025 4.298808 -59.742298 21.518872 -21.326704 -27.827789 -9.619019 -1.955093 -3.195481 2.656358 0.780020 -0.467290 0.512190 0.015820 8.886050 16.477399 11.614071 51.345752 3.218806 -20.067856 -141.320051 31.044001 -112.652730 2.573728 -1.269426 0.124720 -0.026910 -0.123520 -0.130080 
-0.488270 18.185230 -2.283920 17.762283 4.947940 -26.551108 -16.170500 11.926471 7.001520 0.204955 -9.758425 -68.413189 5.325386 20.189207 87.121115 2.680230 15.625281 -0.399778 0.261400 -0.045050 0.508610 17.617990 -9.583106 0.551111 -24.848930 4.096593 -1.073035 1.861996 -6.586550 30.419444 -0.769414 -5.078009 2.466278 -0.433780 -0.378600 0.249910 -1.374497 -3.987817 -8.971131 -13.237388 22.333410 66.644806 7.562066 19.232204 -8.031167 0.371592 2.169009 -15.385247 8.798403 -7.848797 53.825127 -3.300850 -1.161690 -22.832480 -11.338419 -2.728373 5.110175 -59.562080 22.820364 -22.687435 -35.028184 -9.568075 -2.461666 -3.106147 2.736190 0.795720 -0.504230 0.576050 0.015980 8.556544 17.699171 11.725772 52.219552 2.998252 -21.390913 -139.257174 37.998409 -119.114240 2.623958 -1.227218 0.178630 -0.045730 -0.166140 -0.134380 
-0.412530 18.336520 -2.336950 16.124820 1.727851 -27.774074 -16.091256 12.158258 6.723623 3.323770 -7.218019 -62.789564 3.553991 23.349026 88.911057 2.887310 16.272128 -0.567872 0.361820 0.083290 0.566070 17.651827 -9.645254 0.696664 -22.905314 5.658834 -5.477173 2.130707 -6.643766 37.252478 -0.891901 -5.498864 2.280774 -0.382350 -0.443560 0.271000 -1.541390 -3.884926 -9.018301 -10.897310 20.195801 68.266532 6.809630 18.089494 -7.377554 0.473240 0.583727 -15.706182 5.421624 -5.865675 57.417447 -3.317650 -1.176720 -24.287840 -11.303134 -3.937780 5.826240 -58.836320 24.684522 -23.968952 -41.790981 -9.050639 -3.312307 -3.017915 2.806004 0.811870 -0.552010 0.644970 0.028820 8.875346 19.261764 11.608524 52.699776 2.566531 -22.966787 -136.307653 44.976694 -122.620258 2.671251 -1.177404 0.242850 -0.052750 -0.208530 -0.121220 
